<?xml version="1.0" encoding="UTF-8"?>
<svg xmlns="http://www.w3.org/2000/svg" viewBox="0 0 3989 3982">
  <defs>
    <style>
      .cls-1 {
        fill: #f9c8c0;
      }

      .cls-2 {
        fill: #eba998;
      }

      .cls-5 {
        fill: #fff;
      }

      .cls-6 {
        fill: #9d9c9d;
      }

      .cls-7 {
        fill: #930910;
      }

      .cls-8 {
        fill: #ba1921;
      }

      .cls-9 {
        fill: #ce926e;
      }

      .cls-10 {
        fill: #d88b7c;
      }

      .cls-11 {
        fill: #af0e0f;
      }

      .cls-13 {
        fill: #e0a98a;
      }

      .cls-14 {
        fill: #7b7f7f;
      }
    </style>
  </defs>
  <g id="Layer_1" data-name="Layer 1">
    <g>
      <path class="cls-13" d="M738.89,974.2s-252.29,76.5-235.73,353.98c0,0-23.28,77.61,108.06,137.99,0,0-106.49,70.61-139.49,150.05,0,0-42,149.93,91.5,289.43l-28.5,13.5s-191.99,53.33-142.49,232.91c0,0,42,137.57,218.99,200.57,0,0-246.72,43.15-148.49,222.93l124.49,194.05,260.34-188.05,232.67-172,305.33-220,32-93v-207l-110-140.04-273-289.96-19-58-134-105.33s-50-58.67-29.33-138.67l-68-52.67-45.33-130.69Z"/>
      <g>
        <path class="cls-2" d="M1302.89,1956.23c-5.77-52.24-43.33-105.67-43.33-105.67l-147.33-9.67c-138,64-57.33,180.67-57.33,180.67-.67,10,10.67,11.33,10.67,11.33l204.5,63.67c34.82-52.91,32.83-140.33,32.83-140.33Z"/>
        <path class="cls-2" d="M1031.46,2162.56s-72.4,43.5-25.4,142l116.5,76.5,76-57.5,53-162s-128.7-21.5-220.1,1Z"/>
      </g>
      <path class="cls-10" d="M1202.23,1846.23s39.33,140,27.33,199.33l-182.67-49.33,18.67,36.67,204.5,63.67s37.5-72.5,37.5-119.5c0,0-5.5-93-48-126.5l-57.33-4.33Z"/>
      <path class="cls-1" d="M1008.56,2183.56l214,60.5,24-81.5s-111.7-17-215.1,0l-22.9,21Z"/>
      <path class="cls-2" d="M710.25,1408.24s-16.68,86.73,28.65,121.69l158,86.3s30.7-145.01,12.67-212.17c0,0-107.33-39.78-166.67-35.81,0,0-27.96,25.67-32.65,39.99Z"/>
      <path class="cls-10" d="M705.56,1422.56l206,126.33s-10.04,63.09-14.67,67.33l-166-90.67s-36.67-78-25.33-103Z"/>
      <path class="cls-8" d="M1758.56,1775.56s17.23,57.87,12.1,99l-326.98,430-332.98,490.55s-168.72,117.07-295.26,76.09l-83.59-37.19-148.29-59.79,82.67-64.67,330.67-240.67,306.02-219.78,203.31-149.55,105.33-113,147-211Z"/>
      <path class="cls-7" d="M1701.13,1958.1l-357.57,365.46,88-34s-280.25,549.28-616.13,581.64c0,0,102.37,86.46,361.79,170.09,0,0,357.95,113.8,500.44,136.29l34.5-389.98,58.5-815.21,6-82.84-75.53,68.54Z"/>
      <path class="cls-11" d="M1609.56,2111.14l-158.38,403.48c46.5,110.99-85.5,102-85.5,102,142.49,136.49-140.99,116.94-140.99,116.94,211.49,101.94,75,180.04,75,180.04-4.5,103.49-142.49,19.5-142.49,19.5l81,70.63c88.5,73.63-422.75-132.53-422.75-132.53l187.27,105.4c64.9,44.12,395.98,123.7,395.98,123.7-44.42-62.2,81-435.68,81-435.68l228.05-653.05,4.43-40.17-102.6,139.75Z"/>
      <path class="cls-1" d="M738.89,1377.56s132,44,153.67,63l19,7.67-2-44.17s-164.67-57.83-170.67-26.5Z"/>
      <g>
        <path class="cls-9" d="M468.54,2477.56c-81.03,141.33,145.03,256,145.03,256l258-170-4.09-7.06c-276.22,115.38-398.94-78.94-398.94-78.94Z"/>
        <path class="cls-9" d="M932.2,2233.85c31.5,101.71-140.47-28.99-140.47-28.99l-80.27-46.72,95.1-24.5-11.37-11.15,40.36-17.35c-54.65-37.5-218.34,22.5-218.34,22.5l140.22,104.92c21.73,52.42,92.27,108.07,92.27,108.07l-99-58.49c-36.5,72.46-209.99-139.5-209.99-139.5,12,55.5,64.27,139.49,64.27,139.49-100.4,1.13-183.41-102.69-183.41-102.69,22.75,99.94,173.14,171.68,173.14,171.68l248.66,18,207.31,60,32.86-24c-84.13-33-151.36-171.28-151.36-171.28Z"/>
        <path class="cls-9" d="M1383.56,1850.56l-85-113-128.49-78h-58.51l112.02,179.65,38.65,9.02s102,116.67,9.33,253.33l-206-62s-85.03-45-38.02-159c0,0-41.98,15-55.98,106,0,0-85-14-70-62,0,0-129.46,47.33-156.69-44,0,0-8.31,112-80.31,20,0,0-12.5,31.86-29.25,29.93l7.25,27.07,225.87,74.51c-13.76,10.08-24.15,26.32-21.87,52.49,0,0,293,19,372.5,67.5l27.5,10.5-48,161,133-97v-74.75l1,.25,64-59.25,21-137.25-34-105Z"/>
        <path class="cls-9" d="M526.3,1408.24c20.61,25.68,74.76,57.32,74.76,57.32l106.5,14c-22-81.5,38.5-111,38.5-111,46-5.5,163.5,35.5,163.5,35.5l3.5,102.5c0,52-16.5,108-16.5,108l-112-59c4,49,90,85,90,85l130-12,36.33-155.67-14.46-65.33-90.01-43c44.87,86-8.87,222-8.87,222,19.95-61.99,0-194,0-194-79-54-220.33-56.96-220.31-57.02,0,0-195.6-36.95-196.69-96.98,0,0-24.52,139.36,15.74,169.68Z"/>
      </g>
      <path class="cls-6" d="M580.64,2926.89s-22.08-40.05-7.75-98.67l7.75-54s139.59,45.33,232.25,102.67c0,0,270.67,132,332.67,148l376,119.33,82.67,26-32.67,54.67s-52.82,16.03-146.67,3.67c0,0-234-21-336-50.33,0,0-299.7-97.47-322-128,0,0-176.78-94.89-186.25-123.33Z"/>
      <path class="cls-14" d="M1490.89,3204.23l30-10,21.33-33.33-37.33-23.33-238.67-74.67-220-69.33-268.78-125.15s-51.89,7.82-88.55-38.18l-66.67-20.67,14,30.67-54-15.33s-6,2,5.33,8.67c0,0,49.11,7.86,32,24,0,0,96.35,36.77,100.36,50.25l-68.36-19.58-17.6,4.73c-39.6-8.6-38.4,3.6-38.4,3.6-7,44,116.3,104.16,116.3,104.16l42.7,44.84,233,89.5c53,21,271.5,66,271.5,66,169.55,30.18,232.5,15,232.5,15,22.5-2.5,44,12.5,44,12.5h25c6-20-69.67-24.33-69.67-24.33Zm-282.57-98.36l180.93,51.94-173.02-66.91-47.64-24.31,35.79,11.08,283.18,68.56-55.33-6,7.33,13.33h-12l53.33,30.67-120.08-15.08c-65.5-14.9-119.23-42.76-152.49-63.28Z"/>
      <polygon class="cls-8" points="1331.18 1565.17 1815.66 1590.67 1835.86 1673.32 1824.66 1757.16 1764.01 1883.32 1592.17 1800.56 1331.18 1565.17"/>
      <path class="cls-11" d="M1790.16,1721.56l-30.6,40s-197.88-35.68-312.44-112.84l-412.99-219.76,20.43,35.6,476,522,39,44,187.56-247.42s27.44,21.42,13.44,77.42l19.6-32.1s17.6-83.9,0-106.9Z"/>
      <path class="cls-7" d="M1034.13,1428.96l513.05,523.19s-82.5-143.99,181.49-157.49c0,0-286.29-67.5-227.89-146.99l-37.6-22.6s133.49,28.71,226.49-8.85c0,0,133.49-21.69,127.49,57.09l-27,48.24,3,112.1,24.19-76.5,43.01-140.6-54.81-42.48-414-37.52-188-38-120-65s-53.87-21.2-49.43-4.6Z"/>
      <path class="cls-8" d="M853.56,1152.23l295.79-106.17,324.21-254.5,128-20.01,118,38.01,186.59,60-8.52-102.1-72.07-213.9-26-34-457.88-46.01-150.12-5.32h-206s-194.67,6-227.33,45.33l-26,84.67-12.67,50.67,12,298.67,45.33,142s19.33,42,76.67,62.67Z"/>
      <g>
        <path class="cls-11" d="M1833.66,522.89l-484.48-43.44c-170.99-13.28-271.47,0-271.47,0l339.85,68.77-433,19.5,32.05,162.04-168.05,227.8-34,74.72c140-93.28,283,37.28,283,37.28,55.58-6.33,247.12-174.85,247.12-174.85,84-143.99,256.49-116.99,256.49-116.99l296.98,84.44v-129.65l-64.5-209.62Z"/>
        <path class="cls-11" d="M747.06,528.56l-29.5,121,23,306,56.8,90.5v-8.82l17.2-547.52c-15.09-7.75-67.5,38.83-67.5,38.83Z"/>
      </g>
      <path class="cls-7" d="M740.56,955.56l56.8,81.68s62.84-244.07,305.83-358.29c0,0-3.28-69.23-118.63-111.23l105-4.16,274.67,20s440.66,24.94,466.33-20c0,0,95,224,72,300l-263-84s-89-104-138-117c0,0-103-32-143,32,0,0-368,113.55-485,294.28,0,0,157-33.43,238,43.45l19,22.28-57,24s-89.43-32.09-117-51c-26.49-18.16-88-40.64-128,11l44,106-15,10-76-49s-45-131-41-150Z"/>
      <path class="cls-7" d="M1464.89,2126.23l36.67-20.67,62.67-71.33-123.67-144.67s-16.33,186.33,24.33,236.67Z"/>
      <path class="cls-14" d="M740.31,522.89s50.25-43.33,180.25-51.33c0,0,320-7,365,6l562,60.66,7.67-64.67s-20.33-37.65-72.67-49.65l-90.67-19.67-179.67-10.67-195.33-1.33-190-10s-310.67,2-378.67,55.33c0,0-39.84,45.33-7.92,85.33Z"/>
      <path class="cls-6" d="M738.53,507.87s31.43-72.55,272.03-65.31c63.72,1.92,255-2.21,255-2.21l-93-19.79,314.96-18.9-24.62-9.43h-154l-251.33-10s-255.04,11.64-296,49.33c0,0-64.06,41.96-23.03,76.31Z"/>
      <path class="cls-13" d="M3986.56,3986.56h-1313l-826.52-643.41-151.48-203.59,81.1-1153,21.32-461-674.42-77.33s-354.45-127.95-266-292.5l306-106.66,265.71-238.83s164.29-92.67,316.29,13.33c0,0,500,156,698,352,0,0,167.52,115.03,120.76,398.52,0,0,87.24,369.48,135.24,475.48,0,0,106,206,322,350l965,558.52v1028.48Z"/>
      <path class="cls-1" d="M900.82,1135.27s40.24,58.3,121.74,57.3l185-69.5s-16.5-57.5-44-74l-262.74,86.2Z"/>
      <g>
        <path class="cls-9" d="M1972.18,1495.83l44.95-90.27-6.48-80.38,56.91-133.62-72,16.23v-116.23c-28.59,171.36-79.69,154.97-79.69,154.97-40.79,80.96-42.31-34.23-42.31-34.23-56.09,127.11-37.7,7.88-37.7,7.88-69.8,137.99-78.7-19.5-78.7-19.5-52.5,185.99-45-27-45-27-58.5,149.99-73.63-33.07-73.63-33.07l-13.36,11.61c6-25.96-35.61-230.67-35.61-230.67-13.11,313.34-99.38,178.64-99.38,178.64-15,232.49-124.49,52.03-124.49,52.03-15,173.53-61.5,46.96-61.5,46.96-51,190.49-59.72-46.96-59.72-46.96-22.22,158.53-100.77,55.56-100.77,55.56-46.43,104.72-179.99,24.4-179.99,24.4-27,72-119.99,0-119.99,0,6.07,102.91,223.21,195.59,223.21,195.59l229.77,65.76,520.47,32.02,155.02-29.73Z"/>
        <path class="cls-9" d="M2178.23,3003.73s28.59-56.54,324.2,116.76l690.13,325.07s-359.89-248.81-740-460.71c0,0-112.15-104.08,175.88-186.74,0,0-306.03-154.67-498.05,97.36l-143.83,62.62,83.08,26.77-95.64,13.88c-5.83-61.16,65.13-118.83,65.13-118.83-118.35,62.44-10.75-70.34-10.75-70.34,228.02-115.91,360.04-337.13,360.04-337.13-93.62,81.81-332.69,174.02-332.69,174.02,46.78-18.95,102.01-79.95,152.99-149.22,48.41-38.03,106.26-90,160.84-155.67l262-330s-50.95,300.03-407.48,522.02c0,0,215.48-74.02,407.48-366.02,0,0-135.29,240.39-272,354,0,0,30.7,24.36-80.65,115.18l124.65-65.18s276-272,310-340v-128l-142-328-12-334s14.2-291.04-204.9-295.52c0,0,124.98,149.68-63.1,233.52,0,0,342.8-66.46-143.16,245.51l221.1,62.07-221.1,29.74s99.84,56.61,49.5,127.64h123.66s-124.92,182.72-382,211.04c0,0,210.6,51.25,331.25-18.56l-206.43,252.56s223.17-158,361.17-298c0,0-45.95,193.4-247.76,309.57l-160.66,26.61c-86.26,8.32-143.57-355.33-143.57-355.33-50.7,55.09-28.31,360.67,3.5,633.1l-3.5,4.06,4.73,6.39c19.4,164.42,41.96,315.34,53.54,389.82l-219.67,57.72-28.6,90.07-9,23-53-12-54,54s37,16.36-137,14.68c0,0,248.61,260.83,493.09,238.33l202.49,79.5,298.48,250.49,206.99,185h371.86s-453.05-332.01-516.05-467.03c0,0-405.74-252.03-193.87-264.03l448.89,489.05s-352.58-495.81-453.04-594.06l-85.85-60.94-74,114s-52.34,53.87-38.17-53.06l86.84-146.76Zm305.33-995.84l90-21.33-204,251.76s0,0,0,0l-53.79,22.61,167.79-253.03Z"/>
        <polygon class="cls-9" points="2713.56 2259.56 2602.88 2366.49 3986.56 3243.51 3986.56 2997.48 2713.56 2259.56"/>
      </g>
      <g>
        <path d="M1986.56,2933.1c58.41-63,261.08-145.49,261.08-145.49-220.49,61.5-261.08,145.49-261.08,145.49Z"/>
        <polygon points="2203.56 3023.1 2147.14 3135.59 2310.63 2933.1 2203.56 3042.6 2325.63 2798.11 2247.64 2918.1 2247.64 2880.61 2203.56 3023.1"/>
        <path d="M2452.56,2984.85l740,460.71c-108-140-740-460.71-740-460.71Z"/>
        <path d="M2602.88,3172.29l740,460.71c-108-140-740-460.71-740-460.71Z"/>
        <path d="M2185.79,2966.61l17.77-17.05c-5,3.42-11.05,9.35-17.77,17.05Z"/>
        <path d="M1062.7,2045.15l214.49,66c99-200.99-15-269.99-15-269.99l-148.49-7.5c-169.24,78.31-51,211.49-51,211.49Zm197.86-190.59s91,86,7,238l-191-57s-102-120,40-188l144,7Z"/>
        <path d="M774.71,1682.17s-113.99,96-70.5,254.99c0,0-27-128.99,70.5-254.99Z"/>
        <path d="M741.71,1919.15s-4.3-103,79.5-205.49c0,0-117.12,102.34-79.5,205.49Z"/>
        <path d="M1163.56,1824.56s-114-43.81-160,94.59c0,0,45-109.59,160-94.59Z"/>
        <path d="M1259.56,1874.56c42,101,0,195,0,195,66-97,0-195,0-195Z"/>
        <path d="M687.74,2071.56s-19.27,116.68-10.18,161l10.18-161Z"/>
        <path d="M835.56,2183.56s-115.65,22-20.33,121c0,0-74.67-83,20.33-121Z"/>
        <path d="M891.56,2158.14s-57,55.42-47,151.42c0,0,6-91.84,47-151.42Z"/>
        <path d="M3090.49,2400.42c-44.62-27.29-130.04-88.33-169.38-122.78-38.51-33.73-109.67-108-140.99-148.49-19.86-25.67-58.63-78.43-72-108-27.52-60.88-75-256.49-75-256.49-22.5-63-43.5-365.98-43.5-365.98,12-136.49-127.49-239.99-127.49-239.99-87-70.5-301.49-188.99-301.49-188.99-71.08-47.01-156.15-86.09-234.87-116.6l-11.12-63.39c0-149.99-60-233.99-60-233.99v-19.5l4.9-54.66c-1-33-38-52-38-52-85-53-504-44-504-44-166-24-343-8-343-8-201,22-229,51-229,51-48.99,35-13.15,102.98-13.14,103l-.86,36-24,71,13.15,316.56h0c-36.48,15.52-175.05,83.24-213.15,230.44,0,0-32,140-20,176,0,0,0,65.46,90.16,125.29-22.82,11.06-93.46,50.05-113.49,117.37,0,0-38.67,134.67,7.33,203.33,0,0,27.81,49.32,69.75,96.66-37.51,5.47-133,28.31-157.75,120.34-11.79,43.85-29.6,114.04,15,181,32.34,48.56,75.04,107.42,173.92,146.05-42.13,10.24-144.87,47.78-147.25,170.52,0,0,5.04,91.72,42,126,21.44,19.89,76.5,88.5,76.5,88.5,0,0,16.72,20.23,32.63,32.4-5.25,18.08-10.8,42.42-10.8,64.54,0,0-16,68,10,98,0,0,166,168,558,264,0,0,149.77,25.93,277.29,37.93,26.31,30.8,210.04,233.22,520.31,265.08l149.99,54s67.5,60,111,94.5c0,0,95.99,93,182.99,147l236.43,192.5h62s-106-105-68-149l-66,16s-232-118-140-394c0,0-74.08,150.13-56,238-136.57-83-157.15-95.61-165.33-150.99-3.46-23.44-4.08-51.09-3.57-79.44,68.8,43.26,160.9,114.42,160.9,114.42-36-72-91.16-111.97-132-136-6.74-3.96-27.8-14.32-27.8-14.32,1.58-39.09,3.91-76.71,2.47-103.66-1.69-31.51,25.33-238.02,25.33-238.02l-74,114v68s-92,2-54-86l-32,36,24-76s73.89-128.17,118.23-178.95l-80.23,76.95,142-220s-170,160-198,300c0,0-36,160-78,62,0,0-8.79-193.1-13.21-319.53,243.83-50.55,611.23-423.85,738.66-560.06,175.16,97.92,1079.38,607.53,1289.55,809.58v-259.09s-681.65-324.88-896.07-456.04Zm-591.06-1131.11c96.01,225.02-99.01,393.04-99.01,393.04-5.66,4.1-11.24,8.39-16.73,12.83l-184.29-50.1,132.01-51-183.02,51,221.1,62.07c-22.33,19.58-42.85,41.12-60.54,61.54-70.54-15.13-285.66-59.67-330.99-50.33l318.49,65.1c-32.04,38.81-52.05,70.21-52.05,70.21l179.65-84.3c41.64,60.01-248.66,408.78-248.66,408.78l248.66-219.77c-60.37,273.03-371.67,448.76-371.67,448.76,22.46,6.28,45.91,6.27,69.89,1.28l-164.72,179.15,307.47-255.92c155.2-125.87,294.41-355.26,294.41-355.26-52.86,310.81-491.88,531.05-491.88,531.05,29.5,12.43,62.87,9.25,98.23-5.05-85.27,67.41-195.82,144.34-246.23,135.18,0,0-50-238-32-448,0,0-14-262-50-382,0,0-10-118.97,56-213.48l78.62-78.25-15.8-20.27,60.76-70-.45-14.27c66.05-67.45,165.01-170.48,182.72-199.99l-57.01,36-30-117.01v156.02l-96.04,114.51-1.18-37.34,38.39-49.35,14-102.57s-112,240-190,278c0,0-18-34-22-62,0,0-174,96-234-74,0,0,44-324-4-412,0,0,2,36-6,64l-22-64s41.69,338-40,422c0,0-94,92-206,68,0,0-180.74,110-452-118,0,0-56-70-22-140l26.74-7.86c16.71,17.47,57.94,52.87,122.26,58.86l204-77s-4.93-53.37-37.84-76.78c87.29-82.82,300.61-234.52,300.61-234.52,63.01-45,186.02,0,186.02,0,603.06,195.02,828.08,453.04,828.08,453.04Zm-889.87,841.84l110-111.58-320.88,1100.74c-75.81-26.35-173.22-63.23-232.1-79.8h0s-.02,0-.03,0c-5.46-1.54-10.59-2.9-15.33-4.06-100.39-28.26-266.1-105.51-347.65-151.87-64.43-36.62-175.5-80.66-206.65-92.78l894.65-652.22s68-57,87-86c0,0,169-178,180-258,0,0-108.77,143.09-188.77,241.86l-535.66-588.46c11.09,4.35,22.81,8.46,35.14,12.25l356.41,339.96-33-87,51,27.39v-66.39l12-22.5-124.49-67.5,131.99,46.5s94.5,24,166.49,3c0,0,156.65-40.27,217.08,19.09-19.79,74.23-46.66,162.78-66.79,182.65l-1.27,12.05-169.13,282.69Zm161.09-206.29l-26.68,253.29-76.25,1001.42s-.23,2.77-.54,7.67c0,0-153.56-30.98-203.62-45.67-14.49-4.25-31.8-9.91-50.84-16.42l336.84-1155.58,21.09-44.71Zm-1183.06,876.12c192.08,66.32,196.97,96.58,196.97,96.58l-22.03,7.08c-57.68-22.1-99.73-39.12-106.97-43.08,0,0,127,85,284,145,0,0-148.94-43.12-198-68-36.67-18.59-114-57.44-159.23-41.06-2.27-14.78-4.25-38.53,5.23-43.94,0,0-5.75-38.65,.03-52.58Zm538.66-413.04l-108.69-65.38s-53.13-77.37,18-136c0,0,143-13,198,0l-45.18,157.29-62.13,44.09Zm317.31-450.38l110.89,118.67c-23.8,29-43.86,52.39-55.89,64.33,0,0-10.19,6.55-25.89,16.86l-29.11-199.86Zm-527.9-777.54l249.9-73.41c10.59,12.48,26.98,34.18,29,50.95l-175,65s-79.79-3.51-103.9-42.54Zm-163.45-695.29c130.49-79.5,565.47-45,565.47-45,75-6,368.98,12,368.98,12-91.92-1.5-410.98,19.5-410.98,19.5l490.87,3.33c66,2,82,44,82,44l-2.12,40.74c-79.22-99.91-654.75-56.58-654.75-56.58l-226.13-6.17c-162.76,3.28-212.24,31.98-227.03,51.31-10.42-45.61,13.68-63.15,13.68-63.15Zm4.5,93c28.5-81,460.48-54,460.48-54l592.68,78.92c-93.79,45.29-720.31,.91-720.31,.91,564.46,59.33,708.48,36.03,743.4,24.46,30.28,62.25,47.19,209.19,47.19,209.19l3.79,40.22c-113.65-41.11-204.78-62.72-204.78-62.72-106.61-44.95-202.49-10.5-202.49-10.5-59.12,17.35-158.99,119.99-158.99,119.99-30,37.5-170.99,152.99-170.99,152.99l-285.13,105.36-110.85-181.86-19.5-310.48,25.5-112.49Zm80.93,591.55l-43.39-24.09-50.69-133.63,94.08,157.72Zm-319.02,260.4c-14.74-44.17-12.18-108.56,25.11-208.49,23.29-62.43,57.69-130.37,194.57-179.73l34.95,92.07-55.53-30.83,122.99,97.5s-43.5,66,27,148.49c0,0,43.56,66.64,149.11,113.07,4.63,16.01,31.94,121.14-26.12,194.41l-106.49,10.5-94.4-64.16,110.59,62.56c32.69-88.59,13.8-224.89,13.8-224.89-143.58-54.77-176.99-34.5-176.99-34.5-40.93,34.69-45.92,71.94-39.47,101.96-10.66-9.85-22.63-26.19-25.03-50.97,0,0-45,88.5-88.5-27,0,0-32.28,40.64-65.6,0Zm373.94,50.88c-22-27-141-66-141-66,0,0,55-3,153,34,0,0,14,99-10,201l-152-83s-63.22-91.42-7.23-140.79c85.17,12.96,142.23,58.79,142.23,58.79,11,11,10,134,10,134,15.05-63,5-138,5-138Zm-391,356c-27.68-67.97-55.73-194.95,78-283,0,0-19,45,9,65,0,0,144-10.98,225,46.51l51,26.49s123-12,159,5l250.9,93.08c34.62,22.71,63.75,48.7,81.1,77.92,0,0,119.28,182.79-27.13,312.46l-305.87-82.46s-83.47-21.73-173.73-48.56c2.27-28.71,12.76-100.36,60.88-192.59,0,0-73.52,94.62-63.61,191.78-94.41-28.13-195.39-61.66-215.54-81.62-32.52-32.23-107.57-77.37-129-130Zm-71,401c-33.63-64.1-84.83-194.41,112-267,0,0,10.4,42,191.7,93,0,0,9.27,2.97,23.75,9.16-15.52,17.24-50.06,58.08-55.46,85.84,0,0,36.56-63.22,67.14-80.64,9.75,4.52,20.91,10.14,32.7,16.91-32.94,15.64-116.8,69.92-99.84,211.88,0,0-4.36-142.65,101.87-210.71,5.99,3.49,12.13,7.27,18.32,11.36-11.83,21.86-30.49,57.69-33.19,71.2l-31.78,52,37.39-44.25s18.4-47.16,36.54-72.84c4.97,3.5,9.94,7.2,14.85,11.09,0,0,107.04-5.17,251,21l208,54s4.67,51.39,1.65,79.96l-94.99,67.41,47.34-149.29c-34.12-25.5-229.86,0-229.86,0-99.91,59.06-26.14,154.49-26.14,154.49l104.75,68.53-43.36,30.77-181.4-48.87s-39.41-12.96-94.72-22.91c-140.68-76.17-228.6-236.01-228.6-236.01,50.93,136.66,166,207.37,222.47,234.93-52.35-9.01-117.65-14.93-177.16-5.01,0,0-112.46-16.78-175-136Zm38.17,342.57s-28.43-147.17,104.99-164.99c0,0,80.14-20.42,187.49-6,0,0,145.25,31.34,238.72,88.44l-208.83,155.96c-40.98,9.1-275.86,55.17-322.37-73.41Zm665.83,641.43s-272-51-546-254c0,0-23-25-4-38,0,0,50.99-8.73,156,39,87.72,39.87,361,135,361,135l290,95-280-121,382.82,102.89,31.18,19.11-84-16,62,46-18.8,10.58c-103.45-14.75-414.56-129.04-414.56-129.04-93-33-373.48-145.49-373.48-145.49-172.49-70.5-64.5,18-64.5,18,81,70.5,202.49,119.99,202.49,119.99-66.61-42-4.5-61.5-4.5-61.5l119.99,48-49.5,18,25.5,21-61.5-13.5c37.5,28.5,200.99,76.5,200.99,76.5,317.16,76.56,406.25,67.79,431.25,57.42l13.62,1.05s33.82,5.94,42,16c0,0-198.82,9-418-45Zm827,206s-126-28-166-90c0,0,60,124,226,130l22,60,32-42s20.2,43.8,46.63,83.76l-42.63-19.76-146-54s-319.88-40.31-487.14-219.06c80.51,5.95,144.15,4.15,141.14-16.94l56-42,22.79,5.36c-1.94,44.13-2.92,139.4,21.21,184.64v-100s18,94,68,122c0,0-34-74-38-110,0,0,68,128,134,148,0,0-160-174-156-288,0,0,130,160,266,248Zm-4.12-548.38c-.37-11.48-.69-22.11-.94-31.62,0,0,261.75-146,322.4-226,0,0-275.35,168-349.35,116,0,0,233.41-159.91,320.78-266.06,177.01-136.48,366.1-444.94,366.1-444.94,30,216.2-402.04,548.87-402.04,548.87,219.02-36,456.05-486.05,456.05-486.05l-36,159.02,45.75-37.87c-62.8,148.05-320.63,351.03-320.63,351.03,52.81-8.02,113.66-48.9,171.28-99.78-185.79,193.99-454.16,352.12-573.4,417.4Z"/>
        <path d="M1667.72,729.76c-497.34-210.82-846.51,302.52-846.51,302.52,402.78-449.48,774.3-331.56,846.51-302.52Z"/>
        <path d="M1667.72,729.76c4.2,1.78,8.41,3.61,12.63,5.49,0,0-4.35-2.16-12.63-5.49Z"/>
        <path d="M857.56,1013.56c148-30,254,18.72,254,18.72-98-85.28-254-18.72-254-18.72Z"/>
        <polygon points="2064.39 1389.32 2331.41 1260.31 2178.23 1314.31 2229.4 1212.3 2064.39 1389.32"/>
        <path d="M2229.4,1362.01c-39,47.7-201.02,131.53-201.02,131.53,141.01-42.79,201.02-131.53,201.02-131.53Z"/>
        <path d="M2077.89,1525.56c-28.5,22.23-121.51,43.78-121.51,43.78,87.71,22.75,121.51-43.78,121.51-43.78Z"/>
        <path d="M2388.42,1389.32c-105.01,159.02-324.03,213.02-324.03,213.02,246.02-27,324.03-213.02,324.03-213.02Z"/>
        <path d="M2278.91,1937.15l-418.54-169.8c126.01,72.01,418.54,169.8,418.54,169.8Z"/>
        <path d="M2095.56,1625.07c-90.09,10.38-235.19,96.49-235.19,96.49l235.19-96.49Z"/>
        <path d="M1986.56,1767.36c19,13.8,344.85,122.2,344.85,122.2-102.15-46-344.85-122.2-344.85-122.2Z"/>
        <path d="M2369.56,2011.56c-48,92-305.17,278-305.17,278,264.83-134,305.17-278,305.17-278Z"/>
        <path d="M603.56,2575.56s-50-130,30-196c0,0-105.28,59.5-30,196Z"/>
        <path d="M750.71,2397.63s-75,78-13.5,170.99c0,0-43.5-90,13.5-170.99Z"/>
        <path d="M777.56,2390.13s-35.85,82.5-11.85,134.99c0,0-7.8-67.5,11.85-134.99Z"/>
        <polygon points="1913.56 1389.32 1995.56 1240.44 2069.64 1101.56 2003.56 1183.56 1995.56 1091.56 1977.96 1233.56 1913.56 1389.32"/>
        <path d="M1873.56,1362.01s80.68-147.25,113-308.45l-113,308.45Z"/>
        <path d="M2289.41,3150.5c153.54,199.21,453.04,594.06,453.04,594.06-126.01-242-453.04-594.06-453.04-594.06Z"/>
        <path d="M1939.56,2055.56c436,28,430-246,430-246-40,256-430,246-430,246Z"/>
        <path d="M1913.56,2259.56s146.68-5.98,284.34-201.99c0,0-148.34,165.99-284.34,201.99Z"/>
      </g>
      <ellipse class="cls-1" cx="1158.06" cy="1868.57" rx="61" ry="14.75"/>
      <g>
        <path class="cls-5" d="M1463.18,1625.07c248.99,77.14,313.48,175.49,313.48,175.49,0-141-313.48-175.49-313.48-175.49Z"/>
        <path class="cls-5" d="M900.82,536.22c114.11,39,247.37,0,247.37,0-122.99-30-247.37,0-247.37,0Z"/>
      </g>
    </g>
  </g>
</svg>