 <svg xmlns="http://www.w3.org/2000/svg" viewBox="495 168 360 654">
  <path stroke-width="30" stroke="#f9bb03" d="M594.41,805c-.71,0-1.43-.15-2.11-.47-2.2-1.03-3.34-3.48-2.72-5.83l67.98-253.71h-140.45c-1.86,0-3.57-1.04-4.44-2.69-.86-1.65-.73-3.65,.34-5.18l26.85-38.35q25.56-36.51,104.91-149.83l106.31-151.82c1.39-1.99,4.01-2.69,6.21-1.66,2.2,1.03,3.34,3.48,2.72,5.83l-67.98,253.71h140.45c1.86,0,3.57,1.04,4.43,2.69,.86,1.65,.73,3.65-.34,5.18l-238.07,340c-.96,1.37-2.51,2.13-4.1,2.13Zm-67.69-270h137.37c1.55,0,3.02,.72,3.97,1.96,.95,1.23,1.27,2.84,.86,4.34l-62.33,232.61,216.29-308.9h-137.36c-1.55,0-3.02-.72-3.97-1.96-.95-1.23-1.27-2.84-.86-4.34l62.33-232.61-90.04,128.59q-79.35,113.32-104.91,149.83l-21.34,30.48Z"/>
</svg>
